<?xml version="1.0" standalone="no"?>
<!DOCTYPE svg PUBLIC "-//W3C//DTD SVG 20010904//EN"
 "http://www.w3.org/TR/2001/REC-SVG-20010904/DTD/svg10.dtd">
<svg version="1.0" xmlns="http://www.w3.org/2000/svg"
 width="260.000000pt" height="260.000000pt" viewBox="0 0 260.000000 260.000000"
 preserveAspectRatio="xMidYMid meet">
<metadata>
Created by potrace 1.11, written by Peter Selinger 2001-2013
</metadata>
<g transform="translate(0.000000,260.000000) scale(0.100000,-0.100000)"
fill="#000000" stroke="none">
<path d="M1114 2464 c-475 -80 -863 -438 -980 -908 -35 -137 -43 -348 -20
-491 73 -443 385 -811 813 -956 253 -86 576 -80 825 16 401 155 685 500 764
930 24 134 15 375 -19 508 -144 548 -629 921 -1192 916 -60 -1 -146 -7 -191
-15z m401 -289 c388 -63 695 -272 840 -570 67 -137 80 -196 79 -360 0 -131 -2
-146 -33 -235 -55 -162 -124 -265 -260 -391 -384 -357 -1032 -409 -1515 -122
-97 58 -264 219 -325 313 -112 174 -156 401 -115 598 80 389 430 686 904 767
104 18 317 18 425 0z"/>
<path d="M1104 2006 c-473 -90 -782 -412 -761 -792 19 -336 310 -621 727 -710
117 -25 353 -25 470 0 569 122 875 599 661 1031 -110 220 -332 383 -622 456
-108 27 -369 35 -475 15z m431 -271 c170 -36 337 -123 426 -223 23 -26 56 -76
73 -112 28 -59 31 -74 31 -160 0 -88 -3 -101 -34 -164 -106 -215 -384 -349
-726 -349 -342 0 -620 134 -726 349 -31 63 -34 76 -34 164 0 83 4 102 28 154
84 181 285 307 562 352 101 17 293 11 400 -11z"/>
<path d="M1165 1580 c-321 -50 -519 -244 -435 -428 45 -99 187 -192 357 -234
123 -30 313 -30 436 0 225 55 377 185 377 322 0 136 -148 265 -365 320 -92 24
-279 34 -370 20z"/>
</g>
</svg>
